# Blender v3.5.0 OBJ File: 'player.blend'
# www.blender.org
mtllib enemy.mtl
o Cube
v -1.000000 0.402867 1.000000
v -1.000000 0.402867 -1.000000
v 1.000000 0.402867 1.000000
v 1.000000 0.402867 -1.000000
v 0.000000 -1.000000 1.000000
v 0.000000 0.402867 -1.000000
v 0.000000 -1.000000 -1.000000
v 0.000000 0.402867 1.000000
v -0.391189 -1.000000 -1.000000
v -0.391189 0.402867 1.000000
v -0.391189 -1.000000 1.000000
v -0.391189 0.402867 -1.000000
v 0.391189 -1.000000 1.000000
v 0.391189 0.402867 -1.000000
v 0.391189 -1.000000 -1.000000
v 0.391189 0.402867 1.000000
v -0.695594 -1.000000 -1.000000
v -0.695594 0.402867 1.000000
v -0.695594 -1.000000 1.000000
v -0.695594 0.402867 -1.000000
v -0.695594 1.004474 1.000000
v -0.695594 1.004474 -1.000000
v -0.847797 -1.000000 -1.000000
v -0.847797 0.402867 1.000000
v -0.847797 1.004474 1.000000
v -0.847797 -1.000000 1.000000
v -0.847797 0.402867 -1.000000
v -0.847797 1.004474 -1.000000
v -0.543392 -1.000000 1.000000
v -0.543392 0.402867 -1.000000
v -0.543392 1.004474 -1.000000
v -0.543392 -1.000000 -1.000000
v -0.543392 0.402867 1.000000
v -0.543392 1.004474 1.000000
v 0.695594 -1.000000 1.000000
v 0.695594 0.402867 -1.000000
v 0.695594 -1.000000 -1.000000
v 0.695594 0.402867 1.000000
v 0.695594 0.999005 -1.000000
v 0.695594 0.999005 1.000000
v 0.543392 -1.000000 -1.000000
v 0.543392 0.402867 1.000000
v 0.543392 0.999005 1.000000
v 0.543392 -1.000000 1.000000
v 0.543392 0.402867 -1.000000
v 0.543392 0.999005 -1.000000
v 0.847797 -1.000000 1.000000
v 0.847797 0.402867 -1.000000
v 0.847797 0.999005 -1.000000
v 0.847797 -1.000000 -1.000000
v 0.847797 0.402867 1.000000
v 0.847797 0.999005 1.000000
v -1.000000 0.703670 -1.000000
v -0.391189 0.703670 -1.000000
v -0.391189 0.703670 1.000000
v -1.000000 0.703670 1.000000
v -0.695594 0.703670 1.000000
v -0.695594 0.703670 -1.000000
v -0.847797 0.703670 1.000000
v -0.847797 0.703670 -1.000000
v -0.543392 0.703670 -1.000000
v -0.543392 0.703670 1.000000
v 0.391189 0.700936 -1.000000
v 1.000000 0.700936 -1.000000
v 0.391189 0.700936 1.000000
v 1.000000 0.700936 1.000000
v 0.695594 0.700936 1.000000
v 0.695594 0.700936 -1.000000
v 0.543392 0.700936 1.000000
v 0.543392 0.700936 -1.000000
v 0.847797 0.700936 -1.000000
v 0.847797 0.700936 1.000000
v -1.000000 0.854072 -1.000000
v -0.391189 0.854072 1.000000
v -0.695594 0.854072 1.000000
v -0.695594 0.854072 -1.000000
v -0.847797 0.854072 1.000000
v -0.847797 0.854072 -1.000000
v -0.543392 0.854072 -1.000000
v -0.543392 0.854072 1.000000
v -0.391189 0.854072 -1.000000
v -1.000000 0.854072 1.000000
v 0.391189 0.849970 -1.000000
v 0.391189 0.849970 1.000000
v 0.695594 0.849970 1.000000
v 0.695594 0.849970 -1.000000
v 0.543392 0.849970 1.000000
v 0.543392 0.849970 -1.000000
v 0.847797 0.849970 -1.000000
v 0.847797 0.849970 1.000000
v 1.000000 0.849970 -1.000000
v 1.000000 0.849970 1.000000
v -1.000000 -0.861402 1.000000
v 1.000000 -0.861402 -1.000000
v -1.000000 -0.861402 -1.000000
v 1.000000 -0.861402 1.000000
v 0.000000 -0.861402 1.000000
v 0.000000 -0.861402 -1.000000
v -0.391189 -0.861402 -1.000000
v -0.391189 -0.861402 1.000000
v 0.391189 -0.861402 1.000000
v 0.391189 -0.861402 -1.000000
v -0.695594 -0.861402 -1.000000
v -0.695594 -0.861402 1.000000
v -0.847797 -0.861402 -1.000000
v -0.847797 -0.861402 1.000000
v -0.543392 -0.861402 1.000000
v -0.543392 -0.861402 -1.000000
v 0.695594 -0.861402 1.000000
v 0.695594 -0.861402 -1.000000
v 0.543392 -0.861402 -1.000000
v 0.543392 -0.861402 1.000000
v 0.847797 -0.861402 1.000000
v 0.847797 -0.861402 -1.000000
vt 0.625000 0.953125
vt 0.625000 0.937500
vt 0.625000 0.953125
vt 0.625000 0.984375
vt 0.500000 1.000000
vt 0.500000 0.984375
vt 0.625000 0.000000
vt 0.500000 0.250000
vt 0.500000 0.000000
vt 0.140625 0.750000
vt 0.140625 0.500000
vt 0.625000 0.500000
vt 0.500000 0.750000
vt 0.500000 0.500000
vt 0.625000 0.484375
vt 0.500000 0.484375
vt 0.625000 0.312500
vt 0.500000 0.375000
vt 0.500000 0.312500
vt 0.250000 0.500000
vt 0.187500 0.750000
vt 0.187500 0.500000
vt 0.625000 0.812500
vt 0.500000 0.875000
vt 0.500000 0.812500
vt 0.750000 0.500000
vt 0.687500 0.750000
vt 0.687500 0.500000
vt 0.625000 0.765625
vt 0.625000 0.750000
vt 0.625000 0.765625
vt 0.625000 0.796875
vt 0.500000 0.796875
vt 0.625000 0.375000
vt 0.500000 0.437500
vt 0.312500 0.500000
vt 0.250000 0.750000
vt 0.171875 0.750000
vt 0.171875 0.500000
vt 0.625000 0.296875
vt 0.500000 0.296875
vt 0.625000 0.875000
vt 0.500000 0.937500
vt 0.812500 0.500000
vt 0.750000 0.750000
vt 0.812500 0.500000
vt 0.828125 0.750000
vt 0.812500 0.750000
vt 0.625000 0.453125
vt 0.625000 0.437500
vt 0.625000 0.453125
vt 0.625000 0.265625
vt 0.625000 0.250000
vt 0.625000 0.265625
vt 0.625000 0.468750
vt 0.625000 0.484375
vt 0.625000 0.484375
vt 0.656250 0.500000
vt 0.640625 0.750000
vt 0.640625 0.500000
vt 0.625000 0.765625
vt 0.500000 0.781250
vt 0.500000 0.765625
vt 0.625000 0.781250
vt 0.625000 0.796875
vt 0.625000 0.796875
vt 0.625000 0.453125
vt 0.500000 0.468750
vt 0.500000 0.453125
vt 0.343750 0.500000
vt 0.328125 0.750000
vt 0.328125 0.500000
vt 0.625000 0.750000
vt 0.687500 0.750000
vt 0.671875 0.500000
vt 0.687500 0.500000
vt 0.625000 0.500000
vt 0.625000 0.781250
vt 0.625000 0.468750
vt 0.359375 0.500000
vt 0.343750 0.750000
vt 0.312500 0.750000
vt 0.625000 0.437500
vt 0.625000 0.812500
vt 0.625000 0.468750
vt 0.656250 0.750000
vt 0.625000 0.781250
vt 0.625000 0.281250
vt 0.625000 0.296875
vt 0.625000 0.296875
vt 0.843750 0.500000
vt 0.828125 0.500000
vt 0.625000 0.265625
vt 0.500000 0.281250
vt 0.500000 0.265625
vt 0.156250 0.500000
vt 0.625000 0.953125
vt 0.500000 0.968750
vt 0.500000 0.953125
vt 0.625000 0.968750
vt 0.625000 0.984375
vt 0.625000 0.984375
vt 0.625000 0.937500
vt 0.625000 0.000000
vt 0.859375 0.500000
vt 0.625000 0.312500
vt 0.625000 0.281250
vt 0.156250 0.750000
vt 0.625000 0.968750
vt 0.625000 1.000000
vt 0.625000 0.250000
vt 0.625000 0.281250
vt 0.843750 0.750000
vt 0.625000 0.968750
vt 0.625000 0.468750
vt 0.625000 0.812500
vt 0.625000 0.781250
vt 0.625000 0.484375
vt 0.625000 0.500000
vt 0.625000 0.796875
vt 0.625000 0.750000
vt 0.687500 0.500000
vt 0.625000 0.453125
vt 0.625000 0.765625
vt 0.625000 0.281250
vt 0.625000 1.000000
vt 0.625000 0.984375
vt 0.625000 1.000000
vt 0.625000 0.968750
vt 0.625000 0.312500
vt 0.625000 0.296875
vt 0.625000 0.265625
vt 0.625000 0.250000
vt 0.812500 0.750000
vt 0.812500 0.750000
vt 0.625000 0.953125
vt 0.687500 0.750000
vt 0.625000 0.437500
vt 0.625000 0.000000
vt 0.812500 0.500000
vt 0.625000 0.937500
vt 0.375000 0.984375
vt 0.375000 0.968750
vt 0.375000 0.265625
vt 0.375000 0.296875
vt 0.375000 0.281250
vt 0.375000 0.953125
vt 0.375000 0.937500
vt 0.375000 0.796875
vt 0.375000 0.781250
vt 0.375000 0.453125
vt 0.375000 0.437500
vt 0.375000 0.484375
vt 0.375000 0.468750
vt 0.375000 0.765625
vt 0.375000 0.875000
vt 0.375000 0.312500
vt 0.375000 0.375000
vt 0.375000 0.812500
vt 0.671875 0.750000
vt 0.359375 0.750000
vt 0.859375 0.750000
vn 0.0000 0.0000 -1.0000
vn 1.0000 0.0000 0.0000
vn 0.6733 -0.7394 0.0000
vn -1.0000 0.0000 0.0000
vn 0.0000 0.0000 1.0000
vn 0.0000 -1.0000 0.0000
vn 0.0000 1.0000 0.0000
vn -0.6996 0.7145 0.0000
vn 0.7029 0.7113 0.0000
vn 0.6996 0.7145 0.0000
vn -0.7029 0.7113 0.0000
vn -0.6733 -0.7394 0.0000
usemtl Material
s off
f 88/1/1 83/2/1 46/3/1
f 48/4/1 94/5/1 114/6/1
f 4/7/2 96/8/2 94/9/2
f 50/10/3 96/8/3 47/11/3
f 1/12/4 95/13/4 93/14/4
f 24/15/5 93/14/5 106/16/5
f 16/17/5 97/18/5 101/19/5
f 5/20/6 15/21/6 13/22/6
f 12/23/1 98/24/1 99/25/1
f 8/26/7 12/27/7 10/28/7
f 78/29/1 73/30/1 28/31/1
f 30/32/1 99/25/1 108/33/1
f 8/34/5 100/35/5 97/18/5
f 11/36/6 7/37/6 5/20/6
f 13/22/6 41/38/6 44/39/6
f 42/40/5 101/19/5 112/41/5
f 6/42/1 102/43/1 98/24/1
f 16/44/7 6/45/7 8/26/7
f 84/46/8 46/47/8 83/48/8
f 80/49/5 74/50/5 34/51/5
f 90/52/5 92/53/5 52/54/5
f 75/55/5 25/56/5 77/57/5
f 21/58/7 28/59/7 25/60/7
f 27/61/1 103/62/1 105/63/1
f 76/64/1 31/65/1 79/66/1
f 33/67/5 104/68/5 107/69/5
f 19/70/6 32/71/6 29/72/6
f 2/73/1 105/63/1 95/13/1
f 81/74/9 34/75/9 74/76/9
f 82/77/5 77/57/5 25/56/5
f 78/29/1 22/78/1 76/64/1
f 18/79/5 106/16/5 104/68/5
f 26/80/6 17/81/6 19/70/6
f 29/72/6 9/82/6 11/36/6
f 10/83/5 107/69/5 100/35/5
f 81/84/1 79/66/1 31/65/1
f 80/49/5 21/85/5 75/55/5
f 34/75/7 22/86/7 21/58/7
f 20/87/1 108/33/1 103/62/1
f 85/88/5 43/89/5 87/90/5
f 40/91/7 46/47/7 43/92/7
f 51/93/5 109/94/5 113/95/5
f 35/96/6 50/10/6 47/11/6
f 45/97/1 110/98/1 111/99/1
f 86/100/1 49/101/1 89/102/1
f 14/103/1 111/99/1 102/43/1
f 91/104/10 52/105/10 92/53/10
f 84/106/5 87/90/5 43/89/5
f 38/107/5 112/41/5 109/94/5
f 44/39/6 37/108/6 35/96/6
f 88/1/1 39/109/1 86/100/1
f 91/110/1 89/102/1 49/101/1
f 3/111/5 113/95/5 96/8/5
f 90/52/5 40/112/5 85/88/5
f 52/105/7 39/113/7 40/91/7
f 36/114/1 114/6/1 110/98/1
f 33/67/5 57/115/5 18/79/5
f 30/32/1 54/116/1 12/23/1
f 27/61/1 58/117/1 20/87/1
f 1/12/5 59/118/5 56/119/5
f 20/87/1 61/120/1 30/32/1
f 18/79/5 59/118/5 24/15/5
f 1/12/4 53/121/4 2/73/4
f 12/27/2 55/122/2 10/28/2
f 10/83/5 62/123/5 33/67/5
f 2/73/1 60/124/1 27/61/1
f 51/93/5 67/125/5 38/107/5
f 4/126/1 71/127/1 64/128/1
f 45/97/1 68/129/1 36/114/1
f 42/40/5 65/130/5 16/17/5
f 36/114/1 71/127/1 48/4/1
f 38/107/5 69/131/5 42/40/5
f 3/111/5 72/132/5 51/93/5
f 4/7/2 66/133/2 3/111/2
f 16/44/4 63/134/4 14/135/4
f 14/103/1 70/136/1 45/97/1
f 62/123/5 75/55/5 57/115/5
f 61/120/1 81/84/1 54/116/1
f 60/124/1 76/64/1 58/117/1
f 56/119/5 77/57/5 82/77/5
f 58/117/1 79/66/1 61/120/1
f 57/115/5 77/57/5 59/118/5
f 56/119/4 73/30/4 53/121/4
f 54/137/2 74/76/2 55/122/2
f 55/138/5 80/49/5 62/123/5
f 53/121/1 78/29/1 60/124/1
f 72/132/5 85/88/5 67/125/5
f 64/128/1 89/102/1 91/110/1
f 70/136/1 86/100/1 68/129/1
f 69/131/5 84/106/5 65/130/5
f 68/129/1 89/102/1 71/127/1
f 67/125/5 87/90/5 69/131/5
f 66/133/5 90/52/5 72/132/5
f 64/139/2 92/53/2 66/133/2
f 65/140/4 83/48/4 63/134/4
f 63/141/1 88/1/1 70/136/1
f 82/77/11 28/59/11 73/30/11
f 110/98/1 50/142/1 37/143/1
f 47/144/5 96/8/5 113/95/5
f 109/94/5 44/145/5 35/146/5
f 102/43/1 41/147/1 15/148/1
f 111/99/1 37/143/1 41/147/1
f 113/95/5 35/146/5 47/144/5
f 103/62/1 32/149/1 17/150/1
f 100/35/5 29/151/5 11/152/5
f 104/68/5 26/153/5 19/154/5
f 95/13/1 105/63/1 23/155/1
f 107/69/5 19/154/5 29/151/5
f 105/63/1 17/150/1 23/155/1
f 98/24/1 15/148/1 7/156/1
f 112/41/5 13/157/5 44/145/5
f 97/18/5 11/152/5 5/158/5
f 108/33/1 9/159/1 32/149/1
f 99/25/1 7/156/1 9/159/1
f 101/19/5 5/158/5 13/157/5
f 26/153/5 106/16/5 93/14/5
f 50/142/1 114/6/1 94/5/1
f 95/13/12 26/80/12 93/14/12
f 48/4/1 4/126/1 94/5/1
f 4/7/2 3/111/2 96/8/2
f 50/10/3 94/9/3 96/8/3
f 1/12/4 2/73/4 95/13/4
f 24/15/5 1/12/5 93/14/5
f 16/17/5 8/34/5 97/18/5
f 5/20/6 7/37/6 15/21/6
f 12/23/1 6/42/1 98/24/1
f 8/26/7 6/45/7 12/27/7
f 30/32/1 12/23/1 99/25/1
f 8/34/5 10/83/5 100/35/5
f 11/36/6 9/82/6 7/37/6
f 13/22/6 15/21/6 41/38/6
f 42/40/5 16/17/5 101/19/5
f 6/42/1 14/103/1 102/43/1
f 16/44/7 14/135/7 6/45/7
f 84/46/8 43/92/8 46/47/8
f 75/55/5 21/85/5 25/56/5
f 21/58/7 22/86/7 28/59/7
f 27/61/1 20/87/1 103/62/1
f 76/64/1 22/78/1 31/65/1
f 33/67/5 18/79/5 104/68/5
f 19/70/6 17/81/6 32/71/6
f 2/73/1 27/61/1 105/63/1
f 81/74/9 31/160/9 34/75/9
f 78/29/1 28/31/1 22/78/1
f 18/79/5 24/15/5 106/16/5
f 26/80/6 23/161/6 17/81/6
f 29/72/6 32/71/6 9/82/6
f 10/83/5 33/67/5 107/69/5
f 80/49/5 34/51/5 21/85/5
f 34/75/7 31/160/7 22/86/7
f 20/87/1 30/32/1 108/33/1
f 85/88/5 40/112/5 43/89/5
f 40/91/7 39/113/7 46/47/7
f 51/93/5 38/107/5 109/94/5
f 35/96/6 37/108/6 50/10/6
f 45/97/1 36/114/1 110/98/1
f 86/100/1 39/109/1 49/101/1
f 14/103/1 45/97/1 111/99/1
f 91/104/10 49/162/10 52/105/10
f 38/107/5 42/40/5 112/41/5
f 44/39/6 41/38/6 37/108/6
f 88/1/1 46/3/1 39/109/1
f 3/111/5 51/93/5 113/95/5
f 90/52/5 52/54/5 40/112/5
f 52/105/7 49/162/7 39/113/7
f 36/114/1 48/4/1 114/6/1
f 33/67/5 62/123/5 57/115/5
f 30/32/1 61/120/1 54/116/1
f 27/61/1 60/124/1 58/117/1
f 1/12/5 24/15/5 59/118/5
f 20/87/1 58/117/1 61/120/1
f 18/79/5 57/115/5 59/118/5
f 1/12/4 56/119/4 53/121/4
f 12/27/2 54/137/2 55/122/2
f 10/83/5 55/138/5 62/123/5
f 2/73/1 53/121/1 60/124/1
f 51/93/5 72/132/5 67/125/5
f 4/126/1 48/4/1 71/127/1
f 45/97/1 70/136/1 68/129/1
f 42/40/5 69/131/5 65/130/5
f 36/114/1 68/129/1 71/127/1
f 38/107/5 67/125/5 69/131/5
f 3/111/5 66/133/5 72/132/5
f 4/7/2 64/139/2 66/133/2
f 16/44/4 65/140/4 63/134/4
f 14/103/1 63/141/1 70/136/1
f 62/123/5 80/49/5 75/55/5
f 61/120/1 79/66/1 81/84/1
f 60/124/1 78/29/1 76/64/1
f 56/119/5 59/118/5 77/57/5
f 58/117/1 76/64/1 79/66/1
f 57/115/5 75/55/5 77/57/5
f 56/119/4 82/77/4 73/30/4
f 54/137/2 81/74/2 74/76/2
f 55/138/5 74/50/5 80/49/5
f 53/121/1 73/30/1 78/29/1
f 72/132/5 90/52/5 85/88/5
f 64/128/1 71/127/1 89/102/1
f 70/136/1 88/1/1 86/100/1
f 69/131/5 87/90/5 84/106/5
f 68/129/1 86/100/1 89/102/1
f 67/125/5 85/88/5 87/90/5
f 66/133/5 92/53/5 90/52/5
f 64/139/2 91/104/2 92/53/2
f 65/140/4 84/46/4 83/48/4
f 63/141/1 83/2/1 88/1/1
f 82/77/11 25/60/11 28/59/11
f 110/98/1 114/6/1 50/142/1
f 109/94/5 112/41/5 44/145/5
f 102/43/1 111/99/1 41/147/1
f 111/99/1 110/98/1 37/143/1
f 113/95/5 109/94/5 35/146/5
f 103/62/1 108/33/1 32/149/1
f 100/35/5 107/69/5 29/151/5
f 104/68/5 106/16/5 26/153/5
f 107/69/5 104/68/5 19/154/5
f 105/63/1 103/62/1 17/150/1
f 98/24/1 102/43/1 15/148/1
f 112/41/5 101/19/5 13/157/5
f 97/18/5 100/35/5 11/152/5
f 108/33/1 99/25/1 9/159/1
f 99/25/1 98/24/1 7/156/1
f 101/19/5 97/18/5 5/158/5
f 95/13/12 23/161/12 26/80/12
o 平面
v -0.845224 -0.930328 1.010000
v 0.845224 -0.930328 1.010000
v -0.845224 0.245224 1.010000
v 0.845224 0.245224 1.010000
v -0.845224 -0.342552 1.010000
v 0.845224 -0.342552 1.010000
vt 1.000000 0.500000
vt 0.000000 1.000000
vt 0.000000 0.500000
vt 1.000000 0.000000
vt 0.000000 0.000000
vt 1.000000 1.000000
vn 0.0000 0.0000 1.0000
usemtl マテリアル
s off
f 120/163/13 117/164/13 119/165/13
f 116/166/13 119/165/13 115/167/13
f 120/163/13 118/168/13 117/164/13
f 116/166/13 120/163/13 119/165/13
