# Blender v3.5.0 OBJ File: 'player.blend'
# www.blender.org
mtllib enemy_doukasen.mtl
o 立方体.001
v 0.447699 -1.293932 -0.192682
v 0.447699 -1.293932 0.192682
v 0.732683 -1.394909 0.080735
v 0.732683 -1.394909 0.000000
v 0.246251 -1.293932 0.000000
v 0.649148 -1.293932 0.000000
v 0.447699 -1.092484 0.000000
v 0.447699 -1.495381 0.000000
v 0.346975 -1.293932 0.192682
v 0.346975 -1.293932 -0.192682
v 0.346975 -1.092484 0.000000
v 0.346975 -1.495381 0.000000
v 0.548424 -1.293932 -0.192682
v 0.548424 -1.293932 0.192682
v 0.548424 -1.495381 0.000000
v 0.548424 -1.092484 0.000000
v 0.762237 -1.294185 0.053797
v 0.246251 -1.293932 -0.096341
v 0.447699 -1.092484 -0.096341
v 0.447699 -1.495381 -0.096341
v 0.762237 -1.294185 0.000000
v 0.649148 -1.293932 -0.096341
v 0.346975 -1.092484 -0.096341
v 0.346975 -1.495381 -0.096341
v 0.548424 -1.495381 -0.096341
v 0.548424 -1.092484 -0.096341
v 0.762237 -1.294185 -0.053797
v 0.649148 -1.293932 0.096341
v 0.732683 -1.394909 -0.080735
v 0.246251 -1.293932 0.096341
v 0.447699 -1.092484 0.096341
v 0.447699 -1.495381 0.096341
v 0.346975 -1.495381 0.096341
v 0.346975 -1.092484 0.096341
v 0.548424 -1.092484 0.096341
v 0.548424 -1.495381 0.096341
v 0.447699 -1.193208 -0.192682
v 0.447699 -1.193208 0.192682
v 0.246251 -1.193208 0.000000
v 0.649148 -1.193208 0.000000
v 0.346975 -1.193208 -0.192682
v 0.346975 -1.193208 0.192682
v 0.548424 -1.193208 0.192682
v 0.548424 -1.193208 -0.192682
v 0.649148 -1.193208 -0.096341
v 0.246251 -1.193208 -0.096341
v 0.246251 -1.193208 0.096341
v 0.649148 -1.193208 0.096341
v 0.447699 -1.394656 0.192682
v 0.447699 -1.394656 -0.192682
v 0.246251 -1.394656 0.000000
v 0.346975 -1.394656 -0.192682
v 0.346975 -1.394656 0.192682
v 0.548424 -1.394656 0.192682
v 0.548424 -1.394656 -0.192682
v 0.649148 -1.394656 -0.118618
v 0.246251 -1.394656 -0.118618
v 0.246251 -1.394656 0.118618
v 0.649148 -1.394656 0.118618
v 0.298773 -1.192745 0.048183
v 0.298773 -1.396438 -0.048183
v 0.102795 -1.396438 0.000000
v 0.102795 -0.989052 0.000000
v -0.102795 -0.989052 0.000000
v -0.102795 -1.192745 0.000000
v 0.102795 -1.192745 0.000000
v -0.000000 -0.989052 0.096365
v -0.000000 -0.989052 -0.096365
v -0.000000 -1.192745 -0.096365
v -0.000000 -1.192745 0.096365
v -0.000000 -0.989052 0.000000
v -0.000000 -1.396438 0.000000
v -0.051398 -0.989052 0.096365
v -0.051398 -1.192745 0.096365
v -0.051398 -0.989052 0.000000
v -0.051398 -0.989052 -0.096365
v -0.051398 -1.192745 -0.096365
v -0.051398 -1.396438 0.000000
v 0.102795 -1.396438 -0.048183
v -0.102795 -0.989052 -0.048183
v -0.102795 -1.192745 -0.048183
v 0.102795 -0.989052 -0.048183
v 0.102795 -1.192745 -0.048183
v -0.000000 -0.989052 -0.048183
v -0.000000 -1.396438 -0.048183
v -0.051398 -0.989052 -0.048183
v -0.051398 -1.396438 -0.048183
v 0.051398 -0.989052 -0.096365
v 0.051398 -1.192745 -0.096365
v 0.051398 -1.396438 0.000000
v 0.051398 -0.989052 0.096365
v 0.051398 -1.192745 0.096365
v 0.051398 -0.989052 0.000000
v 0.051398 -1.396438 -0.048183
v 0.051398 -0.989052 -0.048183
v 0.102795 -0.989052 0.048183
v 0.102795 -1.192745 0.048183
v 0.102795 -1.396438 0.048183
v -0.102795 -0.989052 0.048183
v -0.102795 -1.192745 0.048183
v -0.000000 -1.396438 0.048183
v -0.000000 -0.989052 0.048183
v -0.051398 -0.989052 0.048183
v -0.051398 -1.396438 0.048183
v 0.051398 -1.396438 0.048183
v 0.051398 -0.989052 0.048183
v 0.298773 -1.396438 0.048183
v 0.298773 -1.396438 0.000000
v 0.298773 -1.192745 -0.048183
v 0.298773 -1.192745 0.000000
v 0.102795 -1.294592 0.096365
v 0.298773 -1.294592 0.000000
v 0.298773 -1.294592 -0.048183
v 0.298773 -1.294592 0.096365
v 0.298773 -1.294592 -0.096365
v 0.102795 -1.294592 -0.096365
v -0.102795 -1.294592 0.000000
v -0.000000 -1.294592 0.096365
v -0.000000 -1.294592 -0.096365
v -0.051398 -1.294592 -0.096365
v -0.051398 -1.294592 0.096365
v -0.102795 -1.294592 -0.048183
v 0.051398 -1.294592 0.096365
v 0.051398 -1.294592 -0.096365
v -0.102795 -1.294592 0.048183
v 0.298773 -1.294592 0.048183
v 0.102795 -1.345515 0.096365
v 0.298773 -1.345515 0.000000
v 0.298773 -1.345515 -0.048183
v 0.298773 -1.345515 0.096365
v -0.102795 -1.345515 0.000000
v -0.000000 -1.345515 0.096365
v -0.000000 -1.345515 -0.096365
v -0.051398 -1.345515 -0.096365
v -0.051398 -1.345515 0.096365
v -0.102795 -1.345515 -0.048183
v 0.051398 -1.345515 0.096365
v 0.051398 -1.345515 -0.096365
v -0.102795 -1.345515 0.048183
v 0.298773 -1.345515 0.048183
v 0.298773 -1.345515 -0.096365
v 0.102795 -1.345515 -0.096365
v 0.298773 -1.243669 -0.096365
v 0.102795 -1.243669 -0.096365
v 0.102795 -1.243669 0.096365
v 0.298773 -1.243669 0.000000
v 0.298773 -1.243669 -0.048183
v 0.298773 -1.243669 0.096365
v -0.102795 -1.243669 0.000000
v -0.000000 -1.243669 0.096365
v -0.000000 -1.243669 -0.096365
v -0.051398 -1.243669 -0.096365
v -0.051398 -1.243669 0.096365
v -0.102795 -1.243669 -0.048183
v 0.051398 -1.243669 0.096365
v 0.051398 -1.243669 -0.096365
v -0.102795 -1.243669 0.048183
v 0.298773 -1.243669 0.048183
vt 0.834727 0.680406
vt 0.804347 0.619645
vt 0.834727 0.619645
vt 0.956247 0.801926
vt 0.865107 0.680406
vt 0.986627 0.801926
vt 0.834727 0.923447
vt 0.804347 0.862687
vt 0.834727 0.862687
vt 0.925867 0.862687
vt 0.865107 0.953827
vt 0.865107 0.923447
vt 0.804347 0.984207
vt 0.713206 0.862687
vt 0.804347 0.953827
vt 0.986627 0.862687
vt 0.865107 0.558885
vt 0.865107 0.984207
vt 0.865107 0.589265
vt 0.986627 0.832306
vt 0.865107 0.619645
vt 0.804347 0.710786
vt 0.804347 0.680406
vt 0.804347 0.923447
vt 0.743586 0.862687
vt 0.925867 0.801926
vt 0.865107 0.710786
vt 0.713206 0.801926
vt 0.682826 0.832306
vt 0.682826 0.801926
vt 0.925867 0.832306
vt 0.804347 0.619645
vt 0.834727 0.801926
vt 0.804347 0.832306
vt 0.804347 0.801926
vt 0.804347 0.558885
vt 0.682826 0.862687
vt 0.834727 0.558885
vt 0.804347 0.589265
vt 0.865107 0.862687
vt 0.865107 0.832306
vt 0.743586 0.801926
vt 0.713206 0.832306
vt 0.834727 0.619645
vt 0.956247 0.862687
vt 0.834727 0.710786
vt 0.804347 0.741166
vt 0.956247 0.832306
vt 0.834727 0.589265
vt 0.834727 0.589265
vt 0.834727 0.984207
vt 0.804347 0.558885
vt 0.834727 0.953827
vt 0.865107 0.801926
vt 0.743586 0.832306
vt 0.834727 0.558885
vt 0.834727 0.741166
vt 0.865107 0.741166
vt 0.834727 0.832306
vt 0.413099 0.501827
vt 0.257255 0.363299
vt 0.291887 0.363299
vt 0.773934 0.269086
vt 0.793711 0.269086
vt 0.773934 0.308640
vt 0.638207 0.363299
vt 0.672839 0.363299
vt 0.638207 0.397931
vt 0.534311 0.432563
vt 0.465047 0.363299
vt 0.534311 0.363299
vt 0.534311 0.294035
vt 0.465047 0.224771
vt 0.534311 0.224771
vt 0.017392 0.809198
vt 0.017392 0.773019
vt 0.017392 0.773019
vt 0.216378 0.990094
vt 0.234468 0.953915
vt 0.234468 0.447406
vt 0.465047 0.294035
vt 0.447731 0.328667
vt 0.447731 0.294035
vt 0.672839 0.294035
vt 0.638207 0.328667
vt 0.638207 0.294035
vt 0.465047 0.328667
vt 0.534311 0.016979
vt 0.465047 0.051611
vt 0.465047 0.016979
vt 0.326519 0.294035
vt 0.291887 0.328667
vt 0.291887 0.294035
vt 0.603575 0.294035
vt 0.568943 0.328667
vt 0.568943 0.294035
vt 0.465047 0.155507
vt 0.447731 0.190139
vt 0.447731 0.155507
vt 0.465047 0.432563
vt 0.447731 0.467195
vt 0.447731 0.432563
vt 0.603575 0.363299
vt 0.568943 0.397931
vt 0.568943 0.363299
vt 0.413099 0.467195
vt 0.361151 0.363299
vt 0.413099 0.432563
vt 0.465047 0.467195
vt 0.534311 0.155507
vt 0.465047 0.190139
vt 0.793711 0.189976
vt 0.773934 0.229531
vt 0.773934 0.189976
vt 0.773934 0.150422
vt 0.534311 0.328667
vt 0.361151 0.294035
vt 0.326519 0.328667
vt 0.447731 0.224771
vt 0.413099 0.363299
vt 0.534311 0.190139
vt 0.361151 0.328667
vt 0.326519 0.363299
vt 0.603575 0.328667
vt 0.447731 0.363299
vt 0.672839 0.328667
vt 0.413099 0.294035
vt 0.257255 0.328667
vt 0.180199 0.990094
vt 0.017392 0.809198
vt 0.257255 0.294035
vt 0.447731 0.501827
vt 0.603575 0.397931
vt 0.534311 0.467195
vt 0.465047 0.501827
vt 0.638207 0.259403
vt 0.603575 0.259403
vt 0.413099 0.224771
vt 0.413099 0.190139
vt 0.568943 0.259403
vt 0.793711 0.229531
vt 0.017392 0.736840
vt 0.180199 0.555943
vt 0.180199 0.555943
vt 0.413099 0.155507
vt 0.534311 0.051611
vt 0.465047 0.086243
vt 0.017392 0.736840
vt 0.413099 0.328667
vt 0.234468 0.519764
vt 0.234468 0.483585
vt 0.234468 0.483585
vt 0.413099 0.120875
vt 0.234468 0.447406
vt 0.430415 0.224771
vt 0.198289 0.555943
vt 0.216378 0.555943
vt 0.216378 0.555943
vt 0.754156 0.229531
vt 0.734379 0.269086
vt 0.734379 0.229531
vt 0.430415 0.467195
vt 0.430415 0.120875
vt 0.430415 0.328667
vt 0.198289 0.990094
vt 0.180199 0.990094
vt 0.430415 0.190139
vt 0.754156 0.150422
vt 0.734379 0.189976
vt 0.734379 0.150422
vt 0.754156 0.189976
vt 0.430415 0.432563
vt 0.430415 0.155507
vt 0.430415 0.294035
vt 0.430415 0.501827
vt 0.413099 0.536459
vt 0.754156 0.269086
vt 0.734379 0.308640
vt 0.430415 0.363299
vt 0.714602 0.269086
vt 0.714602 0.229531
vt 0.714602 0.189976
vt 0.198289 0.555943
vt 0.447731 0.120875
vt 0.198289 0.990094
vt 0.430415 0.536459
vt 0.754156 0.308640
vt 0.306826 0.592123
vt 0.234468 0.592123
vt 0.216378 0.990094
vt 0.216378 0.953915
vt 0.306826 0.953915
vt 0.306826 0.447406
vt 0.534311 0.501827
vt 0.534311 0.086243
vt 0.234468 0.519764
vt 0.447731 0.536459
vt 0.216378 0.592123
vt 0.306826 0.519764
vn 0.6825 0.1578 0.7136
vn 0.0000 0.6912 0.7227
vn -0.6825 0.1578 -0.7136
vn 0.0000 0.6912 -0.7227
vn 0.0000 -0.6912 -0.7227
vn 0.5686 0.5686 -0.5945
vn 0.7071 0.7071 0.0000
vn 0.6912 0.0000 0.7227
vn 0.0000 0.0000 1.0000
vn 0.0000 0.0000 -1.0000
vn 0.0000 -1.0000 0.0000
vn 0.0000 1.0000 0.0000
vn 0.3508 -0.5227 0.7770
vn -1.0000 0.0000 0.0000
vn 0.4787 -0.8780 0.0000
vn 0.9595 -0.2815 0.0000
vn -0.7071 0.7071 0.0000
vn 0.3487 0.1453 0.9259
vn 0.0022 1.0000 0.0000
vn 0.5924 0.0000 -0.8056
vn -0.7071 -0.7071 0.0000
vn 0.6912 0.0000 -0.7227
vn 0.0000 -0.6912 0.7227
vn -0.5924 0.0000 0.8056
vn -0.4692 -0.6104 0.6382
vn 0.4054 0.1974 -0.8926
vn 0.3508 -0.5227 -0.7770
vn 1.0000 0.0000 0.0000
vn -0.5686 0.5686 0.5945
vn 0.4692 -0.6104 -0.6382
vn 0.4692 -0.6104 0.6382
vn -0.4692 -0.6104 -0.6382
vn -0.6912 0.0000 0.7227
vn -0.6912 0.0000 -0.7227
vn 0.5686 0.5686 0.5945
vn -0.5686 0.5686 -0.5945
vn 0.0000 -0.6873 -0.7264
vn -0.6839 0.0000 -0.7296
vn -0.6839 0.0000 0.7296
vn 0.5628 0.5681 -0.6004
vn -0.5628 -0.5681 -0.6004
vn -0.7038 -0.7104 0.0000
vn 0.0000 -0.6873 0.7264
vn -0.5628 -0.5681 0.6004
vn 0.6839 0.0000 0.7296
vn 0.5924 0.0000 0.8056
vn -0.5924 0.0000 -0.8056
vn 0.4054 0.1974 0.8926
vn 0.6825 0.1578 -0.7136
vn -0.6825 0.1578 0.7136
vn 0.3487 0.1453 -0.9259
vn 0.0000 0.6873 -0.7264
vn 0.6839 0.0000 -0.7296
vn 0.0000 0.6873 0.7264
vn 0.5628 0.5681 0.6004
usemtl マテリアル.001
s off
f 14/1/1 59/2/1 28/3/1
f 31/4/2 43/5/2 35/6/2
f 10/7/3 57/8/3 18/9/3
f 23/10/4 37/11/4 41/12/4
f 55/13/5 20/14/5 50/15/5
f 26/16/6 45/17/6 44/18/6
f 40/19/7 26/16/7 16/20/7
f 48/21/8 14/1/8 28/3/8
f 14/1/9 49/22/9 54/23/9
f 10/7/10 50/15/10 52/24/10
f 50/15/5 24/25/5 52/24/5
f 34/26/2 38/27/2 31/4/2
f 32/28/11 15/29/11 36/30/11
f 31/4/12 11/31/12 34/26/12
f 59/2/13 36/30/13 3/32/13
f 30/33/14 51/34/14 58/35/14
f 29/36/15 15/29/15 25/37/15
f 27/38/16 4/39/16 29/36/16
f 11/31/17 46/40/17 39/41/17
f 16/20/7 48/21/7 40/19/7
f 33/42/11 8/43/11 32/28/11
f 28/3/18 3/32/18 17/44/18
f 19/45/4 44/18/4 37/11/4
f 2/46/9 53/47/9 49/22/9
f 35/6/12 7/48/12 31/4/12
f 6/49/19 17/44/19 21/50/19
f 13/51/20 56/52/20 55/13/20
f 1/53/10 55/13/10 50/15/10
f 16/20/12 19/45/12 7/48/12
f 11/31/17 47/54/17 34/26/17
f 12/55/11 20/14/11 8/43/11
f 51/34/21 24/25/21 12/55/21
f 44/18/22 22/56/22 13/51/22
f 8/43/11 25/37/11 15/29/11
f 7/48/12 23/10/12 11/31/12
f 51/34/14 18/9/14 57/8/14
f 33/42/21 51/34/21 12/55/21
f 4/39/16 17/44/16 3/32/16
f 53/47/23 32/28/23 49/22/23
f 9/57/24 58/35/24 53/47/24
f 49/22/23 36/30/23 54/23/23
f 53/47/25 58/35/25 33/42/25
f 22/56/26 29/36/26 56/52/26
f 25/37/27 56/52/27 29/36/27
f 40/19/28 28/3/28 6/49/28
f 34/26/29 47/54/29 42/58/29
f 39/41/14 18/9/14 5/59/14
f 25/37/30 55/13/30 56/52/30
f 37/11/10 13/51/10 1/53/10
f 54/23/31 36/30/31 59/2/31
f 38/27/9 9/57/9 2/46/9
f 52/24/32 24/25/32 57/8/32
f 45/17/28 6/49/28 22/56/28
f 47/54/14 5/59/14 30/33/14
f 43/5/9 2/46/9 14/1/9
f 41/12/10 1/53/10 10/7/10
f 42/58/33 30/33/33 9/57/33
f 46/40/34 10/7/34 18/9/34
f 6/49/19 27/38/19 22/56/19
f 35/6/35 43/5/35 48/21/35
f 23/10/36 41/12/36 46/40/36
f 15/29/15 3/32/15 36/30/15
f 138/60/37 79/61/37 94/62/37
f 158/63/28 60/64/28 148/65/28
f 95/66/12 82/67/12 88/68/12
f 76/69/38 81/70/38 80/71/38
f 99/72/39 74/73/39 73/74/39
f 79/75/11 108/76/11 62/77/11
f 144/78/40 89/79/40 83/80/40
f 100/81/14 149/82/14 157/83/14
f 96/84/12 93/85/12 106/86/12
f 99/72/14 65/87/14 100/81/14
f 82/88/28 66/89/28 83/90/28
f 101/91/11 90/92/11 105/93/11
f 102/94/12 75/95/12 103/96/12
f 92/97/9 150/98/9 155/99/9
f 77/100/10 151/101/10 152/102/10
f 84/103/12 76/104/12 86/105/12
f 133/106/37 87/107/37 134/108/37
f 76/69/10 69/109/10 77/100/10
f 91/110/9 70/111/9 92/97/9
f 109/112/28 146/113/28 147/114/28
f 80/71/12 86/105/12 76/104/12
f 143/115/28 109/112/28 147/114/28
f 103/96/12 64/116/12 99/72/12
f 104/117/11 72/118/11 101/91/11
f 70/111/9 153/119/9 150/98/9
f 87/107/41 136/120/41 134/108/41
f 67/121/9 74/73/9 70/111/9
f 78/122/11 85/123/11 72/118/11
f 75/95/12 80/71/12 64/116/12
f 72/118/11 94/62/11 90/92/11
f 71/124/12 86/105/12 75/95/12
f 65/87/14 154/125/14 149/82/14
f 63/126/12 95/66/12 93/85/12
f 139/127/42 78/122/42 104/117/42
f 64/116/14 81/70/14 65/87/14
f 93/85/12 84/103/12 71/124/12
f 90/92/11 79/61/11 62/128/11
f 142/129/37 61/130/37 79/75/37
f 105/93/11 62/128/11 98/131/11
f 106/86/12 71/124/12 102/94/12
f 69/109/10 156/132/10 151/101/10
f 95/66/12 68/133/12 84/103/12
f 68/134/10 89/135/10 69/109/10
f 91/136/12 102/94/12 67/137/12
f 135/138/43 101/91/43 132/139/43
f 135/138/44 139/127/44 104/117/44
f 73/140/12 103/96/12 99/72/12
f 67/137/12 103/96/12 73/140/12
f 138/60/37 85/123/37 133/106/37
f 110/141/28 158/63/28 146/113/28
f 98/142/43 130/143/43 127/144/43
f 91/136/12 96/84/12 106/86/12
f 132/139/43 105/93/43 137/145/43
f 63/146/28 97/147/28 66/89/28
f 62/77/11 107/148/11 98/142/11
f 136/120/42 78/122/42 131/149/42
f 97/150/12 110/151/12 66/152/12
f 137/145/43 98/131/43 127/153/43
f 66/152/12 109/154/12 83/80/12
f 157/83/39 121/155/39 153/119/39
f 111/156/9 148/157/9 145/158/9
f 112/159/28 140/160/28 128/161/28
f 119/162/10 138/60/10 133/106/10
f 111/163/9 137/145/9 127/153/9
f 117/164/14 136/120/14 131/149/14
f 116/165/10 141/166/10 142/129/10
f 118/167/9 135/138/9 132/139/9
f 115/168/28 129/169/28 141/170/28
f 113/171/28 128/161/28 129/169/28
f 120/172/10 133/106/10 134/108/10
f 123/173/9 132/139/9 137/145/9
f 125/174/14 131/149/14 139/127/14
f 124/175/10 142/176/10 138/60/10
f 126/177/28 130/178/28 140/160/28
f 152/102/38 122/179/38 154/125/38
f 107/180/28 140/160/28 130/178/28
f 129/169/28 108/181/28 61/182/28
f 61/182/28 141/170/28 129/169/28
f 128/161/28 107/180/28 108/181/28
f 125/174/39 135/138/39 121/155/39
f 127/144/9 114/183/9 111/156/9
f 120/172/38 136/120/38 122/179/38
f 77/100/38 154/125/38 81/70/38
f 100/81/39 153/119/39 74/73/39
f 146/113/28 126/177/28 112/159/28
f 151/101/10 124/175/10 119/162/10
f 145/184/9 123/173/9 111/163/9
f 149/82/14 122/179/14 117/164/14
f 144/78/10 115/185/10 116/165/10
f 150/98/9 121/155/9 118/167/9
f 143/115/28 113/171/28 115/168/28
f 147/114/28 112/159/28 113/171/28
f 152/102/10 119/162/10 120/172/10
f 155/99/9 118/167/9 123/173/9
f 157/83/14 117/164/14 125/174/14
f 156/132/10 116/186/10 124/175/10
f 158/63/28 114/187/28 126/177/28
f 97/150/45 91/188/45 92/189/45
f 14/1/46 54/23/46 59/2/46
f 31/4/2 38/27/2 43/5/2
f 10/7/47 52/24/47 57/8/47
f 23/10/4 19/45/4 37/11/4
f 55/13/5 25/37/5 20/14/5
f 40/19/7 45/17/7 26/16/7
f 48/21/8 43/5/8 14/1/8
f 14/1/9 2/46/9 49/22/9
f 10/7/10 1/53/10 50/15/10
f 50/15/5 20/14/5 24/25/5
f 34/26/2 42/58/2 38/27/2
f 32/28/11 8/43/11 15/29/11
f 31/4/12 7/48/12 11/31/12
f 30/33/14 5/59/14 51/34/14
f 29/36/15 4/39/15 15/29/15
f 27/38/16 21/50/16 4/39/16
f 11/31/17 23/10/17 46/40/17
f 16/20/7 35/6/7 48/21/7
f 33/42/11 12/55/11 8/43/11
f 28/3/48 59/2/48 3/32/48
f 19/45/4 26/16/4 44/18/4
f 2/46/9 9/57/9 53/47/9
f 35/6/12 16/20/12 7/48/12
f 6/49/19 28/3/19 17/44/19
f 13/51/49 22/56/49 56/52/49
f 1/53/10 13/51/10 55/13/10
f 16/20/12 26/16/12 19/45/12
f 11/31/17 39/41/17 47/54/17
f 12/55/11 24/25/11 20/14/11
f 51/34/21 57/8/21 24/25/21
f 44/18/22 45/17/22 22/56/22
f 8/43/11 20/14/11 25/37/11
f 7/48/12 19/45/12 23/10/12
f 51/34/14 5/59/14 18/9/14
f 33/42/21 58/35/21 51/34/21
f 4/39/16 21/50/16 17/44/16
f 53/47/23 33/42/23 32/28/23
f 9/57/50 30/33/50 58/35/50
f 49/22/23 32/28/23 36/30/23
f 22/56/51 27/38/51 29/36/51
f 40/19/28 48/21/28 28/3/28
f 39/41/14 46/40/14 18/9/14
f 37/11/10 44/18/10 13/51/10
f 38/27/9 42/58/9 9/57/9
f 45/17/28 40/19/28 6/49/28
f 47/54/14 39/41/14 5/59/14
f 43/5/9 38/27/9 2/46/9
f 41/12/10 37/11/10 1/53/10
f 42/58/33 47/54/33 30/33/33
f 46/40/34 41/12/34 10/7/34
f 6/49/19 21/50/19 27/38/19
f 15/29/15 4/39/15 3/32/15
f 138/60/37 142/176/37 79/61/37
f 76/69/38 77/100/38 81/70/38
f 99/72/39 100/81/39 74/73/39
f 79/75/11 61/130/11 108/76/11
f 109/154/52 143/190/52 83/80/52
f 143/190/52 144/78/52 83/80/52
f 144/78/10 156/191/10 89/79/10
f 89/79/53 88/192/53 83/80/53
f 88/192/53 82/193/53 83/80/53
f 100/81/14 65/87/14 149/82/14
f 96/84/12 63/126/12 93/85/12
f 99/72/14 64/116/14 65/87/14
f 82/88/28 63/146/28 66/89/28
f 101/91/11 72/118/11 90/92/11
f 102/94/12 71/124/12 75/95/12
f 92/97/9 70/111/9 150/98/9
f 77/100/10 69/109/10 151/101/10
f 84/103/12 68/133/12 76/104/12
f 133/106/37 85/123/37 87/107/37
f 76/69/10 68/134/10 69/109/10
f 91/110/9 67/121/9 70/111/9
f 109/112/28 110/141/28 146/113/28
f 103/96/12 75/95/12 64/116/12
f 104/117/11 78/122/11 72/118/11
f 70/111/9 74/73/9 153/119/9
f 67/121/9 73/74/9 74/73/9
f 78/122/11 87/107/11 85/123/11
f 75/95/12 86/105/12 80/71/12
f 72/118/11 85/123/11 94/62/11
f 71/124/12 84/103/12 86/105/12
f 65/87/14 81/70/14 154/125/14
f 63/126/12 82/67/12 95/66/12
f 139/127/42 131/149/42 78/122/42
f 64/116/14 80/71/14 81/70/14
f 93/85/12 95/66/12 84/103/12
f 90/92/11 94/62/11 79/61/11
f 142/129/37 141/166/37 61/130/37
f 105/93/11 90/92/11 62/128/11
f 106/86/12 93/85/12 71/124/12
f 69/109/10 89/135/10 156/132/10
f 95/66/12 88/68/12 68/133/12
f 68/134/10 88/194/10 89/135/10
f 91/136/12 106/86/12 102/94/12
f 135/138/43 104/117/43 101/91/43
f 67/137/12 102/94/12 103/96/12
f 138/60/37 94/62/37 85/123/37
f 110/141/28 60/64/28 158/63/28
f 98/142/43 107/148/43 130/143/43
f 132/139/43 101/91/43 105/93/43
f 63/146/28 96/195/28 97/147/28
f 62/77/11 108/76/11 107/148/11
f 136/120/42 87/107/42 78/122/42
f 97/150/12 60/196/12 110/151/12
f 137/145/43 105/93/43 98/131/43
f 66/152/12 110/151/12 109/154/12
f 157/83/39 125/174/39 121/155/39
f 111/156/9 114/183/9 148/157/9
f 112/159/28 126/177/28 140/160/28
f 119/162/10 124/175/10 138/60/10
f 111/163/9 123/173/9 137/145/9
f 117/164/14 122/179/14 136/120/14
f 116/165/10 115/185/10 141/166/10
f 118/167/9 121/155/9 135/138/9
f 115/168/28 113/171/28 129/169/28
f 113/171/28 112/159/28 128/161/28
f 120/172/10 119/162/10 133/106/10
f 123/173/9 118/167/9 132/139/9
f 125/174/14 117/164/14 131/149/14
f 124/175/10 116/186/10 142/176/10
f 126/177/28 114/187/28 130/178/28
f 152/102/38 120/172/38 122/179/38
f 129/169/28 128/161/28 108/181/28
f 128/161/28 140/160/28 107/180/28
f 125/174/39 139/127/39 135/138/39
f 127/144/9 130/143/9 114/183/9
f 120/172/38 134/108/38 136/120/38
f 77/100/38 152/102/38 154/125/38
f 100/81/39 157/83/39 153/119/39
f 146/113/28 158/63/28 126/177/28
f 151/101/10 156/132/10 124/175/10
f 145/184/9 155/99/9 123/173/9
f 149/82/14 154/125/14 122/179/14
f 144/78/10 143/190/10 115/185/10
f 150/98/9 153/119/9 121/155/9
f 143/115/28 147/114/28 113/171/28
f 147/114/28 146/113/28 112/159/28
f 152/102/10 151/101/10 119/162/10
f 155/99/9 150/98/9 118/167/9
f 157/83/14 149/82/14 117/164/14
f 156/132/10 144/197/10 116/186/10
f 158/63/28 148/65/28 114/187/28
f 155/198/9 145/158/9 92/189/9
f 145/158/54 148/157/54 97/150/54
f 148/157/54 60/196/54 97/150/54
f 97/150/45 96/199/45 91/188/45
f 145/158/55 97/150/55 92/189/55
